<?xml version="1.0" encoding="UTF-8"?>
<svg id="Livello_2" data-name="Livello 2" xmlns="http://www.w3.org/2000/svg" viewBox="0 0 272.68 106.2">
  <defs>
    <style>
      .cls-1 {
        fill: #fff;
        stroke-width: 0px;
      }
    </style>
  </defs>
  <g id="Livello_1-2" data-name="Livello 1">
    <path class="cls-1" d="M92.8,27.42l-2.36,5.69h4.75l-2.39-5.69ZM92.8,27.42l-2.36,5.69h4.75l-2.39-5.69ZM73.55,71.62c-1.37-1.37-3.03-2.05-4.97-2.05s-3.6.68-4.98,2.05c-1.37,1.37-2.05,3.03-2.05,4.98s.68,3.6,2.05,4.97c1.38,1.37,3.03,2.06,4.98,2.06s3.6-.69,4.97-2.06,2.06-3.03,2.06-4.97-.69-3.61-2.06-4.98ZM92.8,27.42l-2.36,5.69h4.75l-2.39-5.69ZM73.55,71.62c-1.37-1.37-3.03-2.05-4.97-2.05s-3.6.68-4.98,2.05c-1.37,1.37-2.05,3.03-2.05,4.98s.68,3.6,2.05,4.97c1.38,1.37,3.03,2.06,4.98,2.06s3.6-.69,4.97-2.06,2.06-3.03,2.06-4.97-.69-3.61-2.06-4.98ZM92.8,27.42l-2.36,5.69h4.75l-2.39-5.69ZM73.55,71.62c-1.37-1.37-3.03-2.05-4.97-2.05s-3.6.68-4.98,2.05c-1.37,1.37-2.05,3.03-2.05,4.98s.68,3.6,2.05,4.97c1.38,1.37,3.03,2.06,4.98,2.06s3.6-.69,4.97-2.06,2.06-3.03,2.06-4.97-.69-3.61-2.06-4.98ZM92.8,27.42l-2.36,5.69h4.75l-2.39-5.69ZM153.98,71.8c-1.37-1.25-3.03-1.88-4.98-1.88h-3.51v13.36h3.51c1.95,0,3.61-.63,4.98-1.88,1.37-1.26,2.05-2.86,2.05-4.8s-.68-3.55-2.05-4.8ZM197.18,71.62c-1.37-1.37-3.03-2.05-4.98-2.05s-3.6.68-4.97,2.05c-1.37,1.37-2.06,3.03-2.06,4.98s.69,3.6,2.06,4.97,3.03,2.06,4.97,2.06,3.61-.69,4.98-2.06c1.37-1.37,2.05-3.03,2.05-4.97s-.68-3.61-2.05-4.98ZM197.18,71.62c-1.37-1.37-3.03-2.05-4.98-2.05s-3.6.68-4.97,2.05c-1.37,1.37-2.06,3.03-2.06,4.98s.69,3.6,2.06,4.97,3.03,2.06,4.97,2.06,3.61-.69,4.98-2.06c1.37-1.37,2.05-3.03,2.05-4.97s-.68-3.61-2.05-4.98ZM153.98,71.8c-1.37-1.25-3.03-1.88-4.98-1.88h-3.51v13.36h3.51c1.95,0,3.61-.63,4.98-1.88,1.37-1.26,2.05-2.86,2.05-4.8s-.68-3.55-2.05-4.8ZM73.55,71.62c-1.37-1.37-3.03-2.05-4.97-2.05s-3.6.68-4.98,2.05c-1.37,1.37-2.05,3.03-2.05,4.98s.68,3.6,2.05,4.97c1.38,1.37,3.03,2.06,4.98,2.06s3.6-.69,4.97-2.06,2.06-3.03,2.06-4.97-.69-3.61-2.06-4.98ZM92.8,27.42l-2.36,5.69h4.75l-2.39-5.69ZM73.55,71.62c-1.37-1.37-3.03-2.05-4.97-2.05s-3.6.68-4.98,2.05c-1.37,1.37-2.05,3.03-2.05,4.98s.68,3.6,2.05,4.97c1.38,1.37,3.03,2.06,4.98,2.06s3.6-.69,4.97-2.06,2.06-3.03,2.06-4.97-.69-3.61-2.06-4.98ZM92.8,27.42l-2.36,5.69h4.75l-2.39-5.69ZM153.98,71.8c-1.37-1.25-3.03-1.88-4.98-1.88h-3.51v13.36h3.51c1.95,0,3.61-.63,4.98-1.88,1.37-1.26,2.05-2.86,2.05-4.8s-.68-3.55-2.05-4.8ZM197.18,71.62c-1.37-1.37-3.03-2.05-4.98-2.05s-3.6.68-4.97,2.05c-1.37,1.37-2.06,3.03-2.06,4.98s.69,3.6,2.06,4.97,3.03,2.06,4.97,2.06,3.61-.69,4.98-2.06c1.37-1.37,2.05-3.03,2.05-4.97s-.68-3.61-2.05-4.98ZM225.19,20.93c-.56-.55-1.22-.82-1.99-.82h-1.41v5.62h1.41c.77,0,1.43-.27,1.99-.83.55-.55.82-1.21.82-1.98s-.27-1.44-.82-1.99ZM197.18,71.62c-1.37-1.37-3.03-2.05-4.98-2.05s-3.6.68-4.97,2.05c-1.37,1.37-2.06,3.03-2.06,4.98s.69,3.6,2.06,4.97,3.03,2.06,4.97,2.06,3.61-.69,4.98-2.06c1.37-1.37,2.05-3.03,2.05-4.97s-.68-3.61-2.05-4.98ZM153.98,71.8c-1.37-1.25-3.03-1.88-4.98-1.88h-3.51v13.36h3.51c1.95,0,3.61-.63,4.98-1.88,1.37-1.26,2.05-2.86,2.05-4.8s-.68-3.55-2.05-4.8ZM73.55,71.62c-1.37-1.37-3.03-2.05-4.97-2.05s-3.6.68-4.98,2.05c-1.37,1.37-2.05,3.03-2.05,4.98s.68,3.6,2.05,4.97c1.38,1.37,3.03,2.06,4.98,2.06s3.6-.69,4.97-2.06,2.06-3.03,2.06-4.97-.69-3.61-2.06-4.98ZM92.8,27.42l-2.36,5.69h4.75l-2.39-5.69ZM225.19,20.93c-.56-.55-1.22-.82-1.99-.82h-1.41v5.62h1.41c.77,0,1.43-.27,1.99-.83.55-.55.82-1.21.82-1.98s-.27-1.44-.82-1.99ZM73.55,71.62c-1.37-1.37-3.03-2.05-4.97-2.05s-3.6.68-4.98,2.05c-1.37,1.37-2.05,3.03-2.05,4.98s.68,3.6,2.05,4.97c1.38,1.37,3.03,2.06,4.98,2.06s3.6-.69,4.97-2.06,2.06-3.03,2.06-4.97-.69-3.61-2.06-4.98ZM92.8,27.42l-2.36,5.69h4.75l-2.39-5.69ZM153.98,71.8c-1.37-1.25-3.03-1.88-4.98-1.88h-3.51v13.36h3.51c1.95,0,3.61-.63,4.98-1.88,1.37-1.26,2.05-2.86,2.05-4.8s-.68-3.55-2.05-4.8ZM162.69,20.93c-.55-.55-1.21-.82-1.98-.82h-1.41v5.62h1.41c.77,0,1.43-.27,1.98-.83.55-.55.83-1.21.83-1.98s-.28-1.44-.83-1.99ZM197.18,71.62c-1.37-1.37-3.03-2.05-4.98-2.05s-3.6.68-4.97,2.05c-1.37,1.37-2.06,3.03-2.06,4.98s.69,3.6,2.06,4.97,3.03,2.06,4.97,2.06,3.61-.69,4.98-2.06c1.37-1.37,2.05-3.03,2.05-4.97s-.68-3.61-2.05-4.98ZM225.19,20.93c-.56-.55-1.22-.82-1.99-.82h-1.41v5.62h1.41c.77,0,1.43-.27,1.99-.83.55-.55.82-1.21.82-1.98s-.27-1.44-.82-1.99ZM197.18,71.62c-1.37-1.37-3.03-2.05-4.98-2.05s-3.6.68-4.97,2.05c-1.37,1.37-2.06,3.03-2.06,4.98s.69,3.6,2.06,4.97,3.03,2.06,4.97,2.06,3.61-.69,4.98-2.06c1.37-1.37,2.05-3.03,2.05-4.97s-.68-3.61-2.05-4.98ZM162.69,20.93c-.55-.55-1.21-.82-1.98-.82h-1.41v5.62h1.41c.77,0,1.43-.27,1.98-.83.55-.55.83-1.21.83-1.98s-.28-1.44-.83-1.99ZM153.98,71.8c-1.37-1.25-3.03-1.88-4.98-1.88h-3.51v13.36h3.51c1.95,0,3.61-.63,4.98-1.88,1.37-1.26,2.05-2.86,2.05-4.8s-.68-3.55-2.05-4.8ZM73.55,71.62c-1.37-1.37-3.03-2.05-4.97-2.05s-3.6.68-4.98,2.05c-1.37,1.37-2.05,3.03-2.05,4.98s.68,3.6,2.05,4.97c1.38,1.37,3.03,2.06,4.98,2.06s3.6-.69,4.97-2.06,2.06-3.03,2.06-4.97-.69-3.61-2.06-4.98ZM92.8,27.42l-2.36,5.69h4.75l-2.39-5.69ZM225.19,20.93c-.56-.55-1.22-.82-1.99-.82h-1.41v5.62h1.41c.77,0,1.43-.27,1.99-.83.55-.55.82-1.21.82-1.98s-.27-1.44-.82-1.99ZM271.91,85.87l-6.83-28.29-.23-.77c-2.12-6.14-7.51-9.81-14.44-9.81-.74,0-1.45.05-2.16.13.1-.43.19-.86.25-1.3.58-4.18-.45-8.16-2.97-11.48l-.36-.48c1.84-3.29,2.8-7,2.8-10.95,0-6.12-2.29-11.64-6.61-15.96s-9.84-6.61-15.96-6.61h-10.55c-2.79,0-5.4.71-7.71,2.04-2.31-1.33-4.92-2.04-7.71-2.04h-14.07c-3.78,0-7.23,1.28-10.04,3.69-3.65-2.42-7.86-3.69-12.41-3.69h-10.55c-3.44,0-6.59,1.07-9.26,3.07-4.02-2.27-8.57-3.42-13.55-3.42-5.89,0-11.29,2.28-15.61,6.6-2.01,2.01-3.56,4.29-4.66,6.75l-2.41-4.76c-2.56-5.46-7.65-8.59-13.98-8.59s-11.38,3.13-13.95,8.59l-1.59,3.14c-.73-1.03-1.59-2.07-2.61-3.1C68.98,2.9,61.94,0,53.8,0s-15.15,2.91-20.91,8.65c-5.76,5.75-8.69,12.8-8.69,20.95,0,6.55,1.89,12.38,5.63,17.4h-.23c-8.12,0-15.16,2.91-20.91,8.65C2.92,61.4,0,68.45,0,76.6s2.92,15.2,8.69,20.94c5.75,5.74,12.79,8.65,20.91,8.65,7.47,0,14.01-2.46,19.49-7.3,5.46,4.84,12.01,7.3,19.49,7.3,6.58,0,12.44-1.9,17.48-5.66.32.38.66.76,1.02,1.12,2.97,2.97,6.77,4.54,10.99,4.54s8.01-1.57,10.98-4.54c.48-.48.93-.98,1.33-1.5l.95,1.08.32.34c2.97,3.03,6.78,4.62,11.03,4.62,2.98,0,5.75-.8,8.18-2.32,2.28,1.29,4.85,1.97,7.59,1.97h10.55c8.15,0,15.19-2.91,20.94-8.66.17-.17.33-.34.49-.51.27.29.55.58.83.86,5.75,5.75,12.79,8.66,20.94,8.66,5.91,0,11.23-1.54,15.9-4.57,1.58,1.58,3.48,2.81,5.68,3.6,1.76.65,3.57.98,5.38.98,2.23,0,4.42-.5,6.51-1.47,1.06-.49,2.03-1.08,2.92-1.76,2.65,2.09,5.92,3.22,9.52,3.22s6.86-1.13,9.52-3.22c.88.68,1.86,1.27,2.91,1.76,2.09.97,4.29,1.47,6.51,1.47,1.81,0,3.62-.33,5.38-.98,3.96-1.43,6.99-4.2,8.77-8.01,1.7-3.64,1.94-7.55.71-11.34ZM207.73,15.89c0-1.95.69-3.61,2.06-4.98s3.03-2.05,4.97-2.05h10.55c3.89,0,7.21,1.37,9.95,4.11s4.11,6.06,4.11,9.95-1.37,7.21-4.11,9.95c-.31.3-.61.58-.92.84l4.29,5.73c1.18,1.55,1.63,3.28,1.36,5.2-.27,1.93-1.18,3.47-2.73,4.65-1.57,1.14-3.31,1.58-5.24,1.31-1.92-.26-3.45-1.17-4.6-2.72l-5.63-9.81v5.59c0,1.95-.68,3.6-2.05,4.97-1.37,1.38-3.03,2.06-4.98,2.06s-3.6-.68-4.97-2.06c-1.37-1.37-2.06-3.02-2.06-4.97V15.89ZM178.24,15.89c0-1.95.69-3.61,2.06-4.98s3.03-2.05,4.97-2.05h14.07c1.94,0,3.6.68,4.97,2.05,1.37,1.37,2.06,3.03,2.06,4.98s-.69,3.6-2.06,4.97c-1.37,1.37-3.03,2.06-4.97,2.06h-7.04v1.76h5.28c1.36,0,2.46.48,3.3,1.44.85.96,1.27,2.12,1.27,3.48s-.42,2.52-1.27,3.48c-.84.96-1.94,1.44-3.3,1.44h-5.28v1.76h7.04c1.94,0,3.6.68,4.97,2.05,1.37,1.38,2.06,3.03,2.06,4.98s-.69,3.6-2.06,4.97c-1.37,1.37-3.03,2.06-4.97,2.06h-14.07c-1.94,0-3.6-.69-4.97-2.06s-2.06-3.03-2.06-4.97V15.89ZM86.51,12.3c1.14-2.53,3.24-3.8,6.29-3.8s5.18,1.27,6.33,3.8l14.23,28.09c.92,1.71,1.08,3.49.5,5.34-.59,1.86-1.75,3.24-3.48,4.15-1.71.89-3.5,1.05-5.35.46s-3.22-1.73-4.11-3.45l-1.34-3.23h-13.53l-1.34,3.23c-.89,1.72-2.26,2.86-4.11,3.45-1.85.59-3.65.43-5.38-.46-1.71-.91-2.86-2.29-3.45-4.15-.58-1.85-.43-3.63.46-5.34l14.28-28.09ZM38.8,14.67c4.13-4.11,9.1-6.17,14.91-6.17s10.82,2.06,14.94,6.16c1.71,1.73,2.66,3.28,2.85,4.64.09.49.14.99.14,1.51,0,1.94-.68,3.6-2.06,4.97-1.37,1.37-3.03,2.06-4.97,2.06s-3.6-.69-4.96-2.07c-.37-.36-.7-.74-.98-1.16-1.36-1.36-3.01-2.04-4.96-2.04s-3.6.68-4.97,2.05-2.06,3.03-2.06,4.98.69,3.6,2.06,4.97c1.37,1.37,3.03,2.06,4.97,2.06s3.6-.68,4.96-2.04c.28-.42.61-.82.98-1.2,1.36-1.35,3.01-2.03,4.96-2.03s3.6.68,4.97,2.05c1.38,1.37,2.06,3.03,2.06,4.98,0,.51-.05,1.02-.14,1.51-.19,1.36-1.14,2.89-2.85,4.6-4.12,4.13-9.1,6.19-14.94,6.19s-10.78-2.06-14.91-6.17c-4.12-4.11-6.18-9.09-6.18-14.92s2.06-10.81,6.18-14.93ZM47.39,86.9c-.19,1.36-1.14,2.89-2.85,4.6-4.13,4.13-9.11,6.19-14.94,6.19s-10.78-2.06-14.91-6.17c-4.12-4.11-6.19-9.09-6.19-14.92s2.07-10.81,6.19-14.93c4.13-4.11,9.09-6.17,14.91-6.17s10.81,2.06,14.94,6.16c1.71,1.73,2.66,3.28,2.85,4.64.09.49.14.99.14,1.51,0,1.94-.69,3.6-2.06,4.97s-3.03,2.06-4.97,2.06-3.6-.69-4.96-2.08c-.38-.35-.7-.73-.99-1.16-1.35-1.35-3.01-2.03-4.95-2.03s-3.61.68-4.98,2.05c-1.37,1.37-2.05,3.03-2.05,4.98s.68,3.6,2.05,4.97c1.37,1.37,3.03,2.06,4.98,2.06s3.6-.68,4.95-2.04c.29-.42.61-.82.99-1.2,1.36-1.35,3.01-2.04,4.96-2.04s3.6.69,4.97,2.06,2.06,3.03,2.06,4.98c0,.51-.05,1.02-.14,1.51ZM83.5,91.52c-4.11,4.11-9.09,6.17-14.92,6.17s-10.81-2.06-14.92-6.17c-4.12-4.11-6.17-9.09-6.17-14.92s2.05-10.81,6.17-14.93c4.11-4.11,9.08-6.17,14.92-6.17s10.81,2.06,14.92,6.17c4.12,4.12,6.17,9.09,6.17,14.93s-2.05,10.81-6.17,14.92ZM129.71,90.66c0,1.95-.69,3.6-2.06,4.97-1.37,1.38-3.03,2.06-4.97,2.06s-3.6-.69-4.96-2.07l-12.62-14.38v9.42c0,1.95-.69,3.6-2.06,4.97-1.37,1.38-3.03,2.06-4.97,2.06s-3.61-.68-4.98-2.06c-1.37-1.37-2.05-3.02-2.05-4.97v-28.13c0-1.94.68-3.6,2.05-4.97,1.37-1.37,3.03-2.06,4.98-2.06s3.61.68,4.99,2.04l12.59,14.38v-9.39c0-1.94.68-3.6,2.05-4.97,1.37-1.37,3.03-2.06,4.98-2.06s3.6.69,4.97,2.06c1.37,1.37,2.06,3.03,2.06,4.97v28.13ZM129.11,50.69c-5,0-8.59-.86-10.78-2.58-2.19-1.73-3.29-3.56-3.29-5.5s.69-3.61,2.06-4.98,3.03-2.06,4.98-2.06c1.78,0,3.11.47,4,1.41s1.94,1.44,3.13,1.49c1.2.06,1.89-.23,2.08-.87.18-.65-1.11-1.5-3.87-2.55-2.77-1.06-5.4-2.43-7.91-4.12-2.51-1.68-3.76-4.47-3.76-8.36s1.37-7.21,4.11-9.95,5.94-4.12,9.6-4.12,6.77.81,9.54,2.41c2.78,1.61,4.17,3.38,4.17,5.33s-.69,3.6-2.06,4.97-3.03,2.06-4.97,2.06c-1.78,0-3-.41-3.66-1.23-.65-.82-1.46-1.26-2.42-1.32-.97-.06-1.54.24-1.73.88-.18.65.87,1.44,3.17,2.37,2.29.94,4.93,2.25,7.91,3.94,2.97,1.69,4.46,4.59,4.46,8.72,0,3.89-1.37,7.21-4.11,9.95s-6.29,4.11-10.65,4.11ZM163.93,91.17c-4.12,4.11-9.09,6.17-14.93,6.17h-10.54c-1.95,0-3.61-.69-4.98-2.06s-2.06-3.03-2.06-4.97v-27.42c0-1.95.69-3.61,2.06-4.98s3.03-2.06,4.98-2.06h10.54c5.84,0,10.81,2.06,14.93,6.17,4.11,4.12,6.17,8.98,6.17,14.58s-2.06,10.46-6.17,14.57ZM162.82,36.98h-3.52v6.68c0,1.95-.69,3.6-2.06,4.97-1.37,1.38-3.03,2.06-4.97,2.06s-3.61-.68-4.98-2.06c-1.37-1.37-2.05-3.02-2.05-4.97V15.89c0-1.95.68-3.61,2.05-4.98s3.03-2.05,4.98-2.05h10.55c3.89,0,7.2,1.37,9.94,4.11,2.75,2.74,4.12,6.06,4.12,9.95s-1.37,7.21-4.12,9.95c-2.74,2.74-6.05,4.11-9.94,4.11ZM207.13,91.52c-4.12,4.11-9.09,6.17-14.93,6.17s-10.81-2.06-14.92-6.17c-4.12-4.11-6.17-9.09-6.17-14.92s2.05-10.81,6.17-14.93c4.11-4.11,9.09-6.17,14.92-6.17s10.81,2.06,14.93,6.17c4.11,4.12,6.17,9.09,6.17,14.93s-2.06,10.81-6.17,14.92ZM263.49,93.61c-.82,1.76-2.14,2.97-3.97,3.62-1.83.68-3.62.61-5.38-.21s-2.96-2.14-3.62-3.97l-1.86-11.67-4.15,12.23c-1.41,2.72-3.54,4.08-6.4,4.08s-4.99-1.36-6.4-4.08l-4.15-12.23-1.86,11.67c-.66,1.83-1.86,3.15-3.62,3.97s-3.55.89-5.38.21c-1.83-.65-3.15-1.86-3.97-3.62-.82-1.76-.89-3.55-.21-5.38l6.89-28.65c.93-2.72,3.07-4.08,6.39-4.08s5.47,1.36,6.4,4.08l5.91,17.51,5.91-17.51c.93-2.72,3.07-4.08,6.39-4.08s5.47,1.36,6.4,4.08l6.93,28.65c.65,1.83.57,3.62-.25,5.38ZM225.19,24.9c.55-.55.82-1.21.82-1.98s-.27-1.44-.82-1.99c-.56-.55-1.22-.82-1.99-.82h-1.41v5.62h1.41c.77,0,1.43-.27,1.99-.83ZM192.2,69.57c-1.94,0-3.6.68-4.97,2.05-1.37,1.37-2.06,3.03-2.06,4.98s.69,3.6,2.06,4.97,3.03,2.06,4.97,2.06,3.61-.69,4.98-2.06c1.37-1.37,2.05-3.03,2.05-4.97s-.68-3.61-2.05-4.98c-1.37-1.37-3.03-2.05-4.98-2.05ZM160.71,20.11h-1.41v5.62h1.41c.77,0,1.43-.27,1.98-.83.55-.55.83-1.21.83-1.98s-.28-1.44-.83-1.99c-.55-.55-1.21-.82-1.98-.82ZM149,69.92h-3.51v13.36h3.51c1.95,0,3.61-.63,4.98-1.88,1.37-1.26,2.05-2.86,2.05-4.8s-.68-3.55-2.05-4.8-3.03-1.88-4.98-1.88ZM92.8,27.42l-2.36,5.69h4.75l-2.39-5.69ZM68.58,69.57c-1.95,0-3.6.68-4.98,2.05-1.37,1.37-2.05,3.03-2.05,4.98s.68,3.6,2.05,4.97c1.38,1.37,3.03,2.06,4.98,2.06s3.6-.69,4.97-2.06,2.06-3.03,2.06-4.97-.69-3.61-2.06-4.98c-1.37-1.37-3.03-2.05-4.97-2.05ZM225.19,20.93c-.56-.55-1.22-.82-1.99-.82h-1.41v5.62h1.41c.77,0,1.43-.27,1.99-.83.55-.55.82-1.21.82-1.98s-.27-1.44-.82-1.99ZM92.8,27.42l-2.36,5.69h4.75l-2.39-5.69ZM73.55,71.62c-1.37-1.37-3.03-2.05-4.97-2.05s-3.6.68-4.98,2.05c-1.37,1.37-2.05,3.03-2.05,4.98s.68,3.6,2.05,4.97c1.38,1.37,3.03,2.06,4.98,2.06s3.6-.69,4.97-2.06,2.06-3.03,2.06-4.97-.69-3.61-2.06-4.98ZM153.98,71.8c-1.37-1.25-3.03-1.88-4.98-1.88h-3.51v13.36h3.51c1.95,0,3.61-.63,4.98-1.88,1.37-1.26,2.05-2.86,2.05-4.8s-.68-3.55-2.05-4.8ZM197.18,71.62c-1.37-1.37-3.03-2.05-4.98-2.05s-3.6.68-4.97,2.05c-1.37,1.37-2.06,3.03-2.06,4.98s.69,3.6,2.06,4.97,3.03,2.06,4.97,2.06,3.61-.69,4.98-2.06c1.37-1.37,2.05-3.03,2.05-4.97s-.68-3.61-2.05-4.98ZM225.19,20.93c-.56-.55-1.22-.82-1.99-.82h-1.41v5.62h1.41c.77,0,1.43-.27,1.99-.83.55-.55.82-1.21.82-1.98s-.27-1.44-.82-1.99ZM197.18,71.62c-1.37-1.37-3.03-2.05-4.98-2.05s-3.6.68-4.97,2.05c-1.37,1.37-2.06,3.03-2.06,4.98s.69,3.6,2.06,4.97,3.03,2.06,4.97,2.06,3.61-.69,4.98-2.06c1.37-1.37,2.05-3.03,2.05-4.97s-.68-3.61-2.05-4.98ZM153.98,71.8c-1.37-1.25-3.03-1.88-4.98-1.88h-3.51v13.36h3.51c1.95,0,3.61-.63,4.98-1.88,1.37-1.26,2.05-2.86,2.05-4.8s-.68-3.55-2.05-4.8ZM92.8,27.42l-2.36,5.69h4.75l-2.39-5.69ZM73.55,71.62c-1.37-1.37-3.03-2.05-4.97-2.05s-3.6.68-4.98,2.05c-1.37,1.37-2.05,3.03-2.05,4.98s.68,3.6,2.05,4.97c1.38,1.37,3.03,2.06,4.98,2.06s3.6-.69,4.97-2.06,2.06-3.03,2.06-4.97-.69-3.61-2.06-4.98ZM92.8,27.42l-2.36,5.69h4.75l-2.39-5.69ZM73.55,71.62c-1.37-1.37-3.03-2.05-4.97-2.05s-3.6.68-4.98,2.05c-1.37,1.37-2.05,3.03-2.05,4.98s.68,3.6,2.05,4.97c1.38,1.37,3.03,2.06,4.98,2.06s3.6-.69,4.97-2.06,2.06-3.03,2.06-4.97-.69-3.61-2.06-4.98ZM153.98,71.8c-1.37-1.25-3.03-1.88-4.98-1.88h-3.51v13.36h3.51c1.95,0,3.61-.63,4.98-1.88,1.37-1.26,2.05-2.86,2.05-4.8s-.68-3.55-2.05-4.8ZM197.18,71.62c-1.37-1.37-3.03-2.05-4.98-2.05s-3.6.68-4.97,2.05c-1.37,1.37-2.06,3.03-2.06,4.98s.69,3.6,2.06,4.97,3.03,2.06,4.97,2.06,3.61-.69,4.98-2.06c1.37-1.37,2.05-3.03,2.05-4.97s-.68-3.61-2.05-4.98ZM197.18,71.62c-1.37-1.37-3.03-2.05-4.98-2.05s-3.6.68-4.97,2.05c-1.37,1.37-2.06,3.03-2.06,4.98s.69,3.6,2.06,4.97,3.03,2.06,4.97,2.06,3.61-.69,4.98-2.06c1.37-1.37,2.05-3.03,2.05-4.97s-.68-3.61-2.05-4.98ZM153.98,71.8c-1.37-1.25-3.03-1.88-4.98-1.88h-3.51v13.36h3.51c1.95,0,3.61-.63,4.98-1.88,1.37-1.26,2.05-2.86,2.05-4.8s-.68-3.55-2.05-4.8ZM92.8,27.42l-2.36,5.69h4.75l-2.39-5.69ZM73.55,71.62c-1.37-1.37-3.03-2.05-4.97-2.05s-3.6.68-4.98,2.05c-1.37,1.37-2.05,3.03-2.05,4.98s.68,3.6,2.05,4.97c1.38,1.37,3.03,2.06,4.98,2.06s3.6-.69,4.97-2.06,2.06-3.03,2.06-4.97-.69-3.61-2.06-4.98ZM92.8,27.42l-2.36,5.69h4.75l-2.39-5.69ZM73.55,71.62c-1.37-1.37-3.03-2.05-4.97-2.05s-3.6.68-4.98,2.05c-1.37,1.37-2.05,3.03-2.05,4.98s.68,3.6,2.05,4.97c1.38,1.37,3.03,2.06,4.98,2.06s3.6-.69,4.97-2.06,2.06-3.03,2.06-4.97-.69-3.61-2.06-4.98ZM153.98,71.8c-1.37-1.25-3.03-1.88-4.98-1.88h-3.51v13.36h3.51c1.95,0,3.61-.63,4.98-1.88,1.37-1.26,2.05-2.86,2.05-4.8s-.68-3.55-2.05-4.8ZM153.98,71.8c-1.37-1.25-3.03-1.88-4.98-1.88h-3.51v13.36h3.51c1.95,0,3.61-.63,4.98-1.88,1.37-1.26,2.05-2.86,2.05-4.8s-.68-3.55-2.05-4.8ZM92.8,27.42l-2.36,5.69h4.75l-2.39-5.69ZM73.55,71.62c-1.37-1.37-3.03-2.05-4.97-2.05s-3.6.68-4.98,2.05c-1.37,1.37-2.05,3.03-2.05,4.98s.68,3.6,2.05,4.97c1.38,1.37,3.03,2.06,4.98,2.06s3.6-.69,4.97-2.06,2.06-3.03,2.06-4.97-.69-3.61-2.06-4.98ZM92.8,27.42l-2.36,5.69h4.75l-2.39-5.69ZM73.55,71.62c-1.37-1.37-3.03-2.05-4.97-2.05s-3.6.68-4.98,2.05c-1.37,1.37-2.05,3.03-2.05,4.98s.68,3.6,2.05,4.97c1.38,1.37,3.03,2.06,4.98,2.06s3.6-.69,4.97-2.06,2.06-3.03,2.06-4.97-.69-3.61-2.06-4.98ZM92.8,27.42l-2.36,5.69h4.75l-2.39-5.69ZM73.55,71.62c-1.37-1.37-3.03-2.05-4.97-2.05s-3.6.68-4.98,2.05c-1.37,1.37-2.05,3.03-2.05,4.98s.68,3.6,2.05,4.97c1.38,1.37,3.03,2.06,4.98,2.06s3.6-.69,4.97-2.06,2.06-3.03,2.06-4.97-.69-3.61-2.06-4.98ZM92.8,27.42l-2.36,5.69h4.75l-2.39-5.69ZM92.8,27.42l-2.36,5.69h4.75l-2.39-5.69Z"/>
  </g>
</svg>