<svg xmlns="http://www.w3.org/2000/svg" viewBox="0 0 64.43 41.68"><defs><style>.cls-1{fill:#79cdf3;}</style></defs><g id="Livello_2" data-name="Livello 2"><g id="Livello_1-2" data-name="Livello 1"><path class="cls-1" d="M27.13,26V19.75h3.55l3.54-7.09H27.13V5.57L20,9.12v3.54s-3.54,0-3.54,1.78V12.66L9.41,16.21V30.39s0,3.54,3.54,3.54a3.47,3.47,0,0,0,3.55-3.54V23.3s0-3.55,3.54-3.55v8.86s0,5.32,5.32,5.32h0c5.32,0,5.32-7.09,5.32-7.09a2.72,2.72,0,0,1-2.39.72A1.64,1.64,0,0,1,27.13,26Z"/><path class="cls-1" d="M37.59,28.66l-.59,0h-.16a17.81,17.81,0,1,1,1.25-12.39l.23-.16.22-.16h.05a16.69,16.69,0,0,1,1.78-.92l.14-.05a2.65,2.65,0,0,1,.3-.11,20.86,20.86,0,1,0-3.47,18.66,16.06,16.06,0,0,0,1-1.46,20.1,20.1,0,0,0,2.15-4.42c-.27.15-.56.29-.86.43A7.6,7.6,0,0,1,37.59,28.66Z"/><path class="cls-1" d="M46.75,20.7c-.38.6-.75,1.21-1.11,1.82a17.21,17.21,0,0,0-.84,1.66,16.48,16.48,0,0,0,1.1-1.66,14,14,0,0,0,.93-1.86.75.75,0,0,0,.05-.16ZM46,20.41c.11-.35.21-.73.32-1.13A5.31,5.31,0,0,0,46.49,18a3.6,3.6,0,0,0-.2-1.23,2.48,2.48,0,0,0-1.23-1.22,3.78,3.78,0,0,0-1.83-.33,5.81,5.81,0,0,0-1.75.36c-.11,0-.21.08-.32.12a15.26,15.26,0,0,0-1.88,1h0l-.51.37a13.73,13.73,0,0,0-2.57,2.43,10.73,10.73,0,0,0-2,3.46c-.07.26-.13.53-.18.82a4.62,4.62,0,0,0-.07.79,3.41,3.41,0,0,0,.64,1.95,3.2,3.2,0,0,0,1.49,1,4.36,4.36,0,0,0,1.59.21l.26,0a6.31,6.31,0,0,0,1.81-.49,9.52,9.52,0,0,0,1.59-.89l0,0a13.79,13.79,0,0,0,1.44-1.19A16.38,16.38,0,0,0,44,23.78a17.75,17.75,0,0,0,1.13-1.69A14.75,14.75,0,0,0,46,20.41Zm-1.56-2.75A23.11,23.11,0,0,1,43.68,20,18.78,18.78,0,0,1,42.61,22c-.19.32-.4.63-.62.95s-.51.72-.79,1.08a11.79,11.79,0,0,1-1.69,1.76.24.24,0,0,0-.14.06.17.17,0,0,0-.06.06c-.28.16-.59.33-.94.5a1.17,1.17,0,0,1-.24.09,1.15,1.15,0,0,1-1.39-.47,1.24,1.24,0,0,1-.16-.62s.14-.87.14-.87a8.16,8.16,0,0,1,.67-1.94,15.45,15.45,0,0,1,1.23-2.12q.23-.33.48-.66a16.22,16.22,0,0,1,1.14-1.37,13,13,0,0,1,1.56-1.44,2.6,2.6,0,0,1,.32-.26,7,7,0,0,1,.82-.5,1.55,1.55,0,0,1,.93-.19.63.63,0,0,1,.49.41,2.2,2.2,0,0,1,.13.73A2.77,2.77,0,0,1,44.46,17.66Z"/><path class="cls-1" d="M46.29,16.76a2.48,2.48,0,0,0-1.23-1.22,3.78,3.78,0,0,0-1.83-.33,5.81,5.81,0,0,0-1.75.36c-.11,0-.21.08-.32.12a15.26,15.26,0,0,0-1.88,1h0l-.51.37a13.73,13.73,0,0,0-2.57,2.43,10.73,10.73,0,0,0-2,3.46c-.07.26-.13.53-.18.82a4.62,4.62,0,0,0-.07.79,3.41,3.41,0,0,0,.64,1.95,3.2,3.2,0,0,0,1.49,1,4.36,4.36,0,0,0,1.59.21l.26,0a6.31,6.31,0,0,0,1.81-.49,9.52,9.52,0,0,0,1.59-.89l0,0a13.79,13.79,0,0,0,1.44-1.19A16.38,16.38,0,0,0,44,23.78a17.75,17.75,0,0,0,1.13-1.69A14.75,14.75,0,0,0,46,20.41c.11-.35.21-.73.32-1.13A5.31,5.31,0,0,0,46.49,18,3.6,3.6,0,0,0,46.29,16.76ZM43.68,20A20.66,20.66,0,0,1,42.61,22c-.19.32-.4.63-.62.95s-.51.72-.79,1.08a17.07,17.07,0,0,1-2.83,2.38,1.17,1.17,0,0,1-.24.09,1.15,1.15,0,0,1-1.39-.47,1.24,1.24,0,0,1-.16-.62s.14-.87.14-.87a8.16,8.16,0,0,1,.67-1.94,15.45,15.45,0,0,1,1.23-2.12q.23-.33.48-.66a16.22,16.22,0,0,1,1.14-1.37,13,13,0,0,1,1.56-1.44,2.6,2.6,0,0,1,.32-.26,7,7,0,0,1,.82-.5,1.55,1.55,0,0,1,.93-.19.63.63,0,0,1,.49.41,2,2,0,0,1,.13.73A13.16,13.16,0,0,1,43.68,20Z"/><path class="cls-1" d="M64.43,15.4a1.14,1.14,0,0,1-.14.43,3.18,3.18,0,0,1-.25.43l-.28.42a12,12,0,0,0-.37,1.41c-.1.5-.2,1-.29,1.43-.17.78-.35,1.55-.53,2.31A12.92,12.92,0,0,1,61.82,24a8.27,8.27,0,0,1-1.21,1.88,5.48,5.48,0,0,1-1.91,1.37,4.73,4.73,0,0,1-1,.35,4.84,4.84,0,0,1-1.08.13,3.63,3.63,0,0,1-1.34-.25,1.7,1.7,0,0,1-.68-.56,1.23,1.23,0,0,1-.27-.75,1.25,1.25,0,0,1,.11-.5,1.48,1.48,0,0,1,.37-.48,2,2,0,0,1,.51-.27.63.63,0,0,1,.6,0,.36.36,0,0,1,.17.32,1.65,1.65,0,0,1-.06.43.77.77,0,0,0,0,.25,1.35,1.35,0,0,0,.18.64.46.46,0,0,0,.49.28.85.85,0,0,0,.47-.17,3.49,3.49,0,0,0,.49-.39,6,6,0,0,0,.43-.45c.13-.14.23-.26.31-.36a17.75,17.75,0,0,0,1.54-3.73c.38-1.31.7-2.61,1-3.89-.31.35-.61.7-.89,1L59.12,20q-1.5,1.88-3.06,3.69A29.34,29.34,0,0,1,52.66,27c-.14.11-.3.22-.45.32a1.63,1.63,0,0,1-.43.18c-.31.58-.63,1.15-1,1.71a19.4,19.4,0,0,1-1.57,2.26,9.61,9.61,0,0,1-2,1.87A13.49,13.49,0,0,1,45,34.71a8.48,8.48,0,0,1-2.48.72c-.35.06-.76.1-1.24.14a5,5,0,0,1-1.39-.07A3.49,3.49,0,0,1,38.64,35a1.83,1.83,0,0,1-.8-1,1.68,1.68,0,0,1-.05-.63,2,2,0,0,1,.09-.48,1.53,1.53,0,0,1,.68-.86,1.51,1.51,0,0,1,.26-.12,1.23,1.23,0,0,1,.78,0,1,1,0,0,1,.71.79.78.78,0,0,1-.07.54c-.08.18-.16.35-.23.52a1,1,0,0,0-.1.49.62.62,0,0,0,.35.45,1.28,1.28,0,0,0,.58.26,3.08,3.08,0,0,0,.68,0,3.87,3.87,0,0,0,.68-.12c.23-.07.42-.14.59-.21A10.44,10.44,0,0,0,45.14,33,15.33,15.33,0,0,0,47,30.81a22.6,22.6,0,0,0,1.54-2.47c.47-.86.9-1.7,1.31-2.53-.28.26-.58.52-.9.79a8.5,8.5,0,0,1-1,.71,4.94,4.94,0,0,1-1.11.47,2.43,2.43,0,0,1-1.2,0,1.39,1.39,0,0,1-.86-.52,2.07,2.07,0,0,1-.36-.86,2.85,2.85,0,0,1,0-1,5.39,5.39,0,0,1,.25-1l.12-.26a17.21,17.21,0,0,1,.84-1.66c.36-.61.73-1.22,1.11-1.82l.13-.2h0l1-1.6c.38-.6.73-1.22,1-1.85.05-.11.1-.23.15-.37s.09-.29.14-.43a2,2,0,0,1,.18-.42.65.65,0,0,1,.31-.28,8.36,8.36,0,0,0,1.09-.08,4.09,4.09,0,0,1,1.1,0c.19,0,.3.12.32.26a.82.82,0,0,1,0,.46,2.45,2.45,0,0,1-.22.5c-.09.17-.17.31-.22.42a26.5,26.5,0,0,1-1.42,2.63l-1.56,2.52c-.06.09-.16.27-.31.54s-.3.57-.46.9-.31.68-.45,1a5.58,5.58,0,0,0-.32.95,1.14,1.14,0,0,0,0,.63c.06.13.21.16.45.07a6.64,6.64,0,0,0,2.46-1.62A15.86,15.86,0,0,0,52,22.3a26.33,26.33,0,0,0,1.59-2.8c.48-1,1-1.87,1.5-2.71a1.62,1.62,0,0,0,.16-.55c0-.23,0-.41,0-.56a.48.48,0,0,1,.33-.22L57,15.35a6.89,6.89,0,0,1,1.36,0,2.11,2.11,0,0,1,0,.63,2.34,2.34,0,0,1-.18.68,7.9,7.9,0,0,1-.77,1.39c-.31.45-.58.88-.82,1.31-.48.89-1,1.76-1.46,2.6s-1,1.68-1.55,2.52c-.23.35-.45.72-.67,1.09a16.08,16.08,0,0,0,1.41-1.12,22.36,22.36,0,0,0,1.88-1.89c.59-.67,1.17-1.35,1.72-2s1.09-1.37,1.59-2l.93-1.24c.31-.4.62-.78.93-1.15a1.77,1.77,0,0,1,.51-.48,1.8,1.8,0,0,1,.58-.23,2.7,2.7,0,0,1,.65-.07l.71,0v0h.29l.3,0Z"/></g></g></svg>