<?xml version="1.0" encoding="UTF-8"?>
<svg id="Livello_2" xmlns="http://www.w3.org/2000/svg" viewBox="0 0 168.4 168.4">
  <defs>
    <style>
      .cls-1 {
        fill: #fff;
      }
    </style>
  </defs>
  <g id="Livello_1-2" data-name="Livello_1">
    <g>
      <path class="cls-1" d="M115.76,0h-63.14C23.56,0,0,23.56,0,52.62h0v63.14C0,144.83,23.55,168.39,52.62,168.4h63.14c29.07,0,52.64-23.57,52.64-52.64v-63.14C168.39,23.55,144.83,0,115.76,0M152.6,115.76c-.01,20.34-16.5,36.82-36.84,36.84h-63.14c-20.33-.03-36.81-16.5-36.84-36.84v-63.14c.03-20.33,16.5-36.81,36.84-36.84h63.14c20.33.03,36.81,16.5,36.84,36.84v63.14Z"/>
      <path class="cls-1" d="M84.2,42.09c-23.26-.01-42.12,18.83-42.14,42.09-.01,23.26,18.83,42.12,42.09,42.14,23.26.01,42.12-18.83,42.14-42.09,0,0,0-.02,0-.02-.01-23.24-18.85-42.09-42.09-42.11M84.2,110.51c-14.53,0-26.31-11.78-26.31-26.31,0-14.53,11.78-26.31,26.31-26.31,14.53,0,26.31,11.78,26.31,26.31h0c-.01,14.52-11.78,26.3-26.31,26.31Z"/>
      <path class="cls-1" d="M129.54,33.33c3.11-.01,5.64,2.5,5.65,5.61.01,3.11-2.5,5.64-5.61,5.65-3.11.01-5.64-2.5-5.65-5.61,0-.02,0-.03,0-.05,0-3.1,2.51-5.61,5.61-5.61"/>
    </g>
  </g>
</svg>