<?xml version="1.0" encoding="UTF-8"?>
<svg id="Livello_2" xmlns="http://www.w3.org/2000/svg" viewBox="0 0 256 289.03">
  <defs>
    <style>
      .cls-1 {
        fill: #fff;
      }
    </style>
  </defs>
  <g id="Livello_1-2" data-name="Livello_1">
    <path class="cls-1" d="M209.3,144.58l26.28-26.11c27.22-27.04,27.22-71.09,0-98.13-27.22-27.04-71.56-27.04-98.79,0l-9.57,9.5C114.56,11.78,93.67,0,69.81,0,31.27,0,0,31.06,0,69.35v150.34c0,38.29,31.27,69.35,69.81,69.35,23.86,0,44.75-11.78,57.41-29.85l9.57,9.51c27.22,27.04,71.56,27.04,98.79,0,27.22-27.04,27.22-71.09,0-98.13l-26.28-25.97h0Z"/>
  </g>
</svg>