<?xml version="1.0" encoding="UTF-8"?>
<svg id="Livello_2" xmlns="http://www.w3.org/2000/svg" viewBox="0 0 64.48 41.73">
  <defs>
    <style>
      .cls-1 {
        fill: #fff;
      }
    </style>
  </defs>
  <g id="Livello_1-2" data-name="Livello_1">
    <g id="Livello_2-2" data-name="Livello_2">
      <g id="Livello_1-2">
        <path class="cls-1" d="M27.18,26.06v-6.25h3.55l3.54-7.09h-7.09v-7.09l-7.13,3.55v3.54s-3.54,0-3.54,1.78v-1.78l-7.05,3.55v14.18s0,3.54,3.54,3.54c1.92.04,3.51-1.47,3.55-3.39,0-.05,0-.1,0-.15v-7.09s0-3.55,3.54-3.55v8.86s0,5.32,5.32,5.32h0c5.32,0,5.32-7.09,5.32-7.09-.63.61-1.52.88-2.39.72-.69-.21-1.16-.84-1.16-1.56Z"/>
        <path class="cls-1" d="M37.64,28.72h-.75c-4.35,8.82-15.02,12.45-23.85,8.11C4.22,32.48.59,21.81,4.94,12.98,9.29,4.16,19.96.53,28.79,4.87c4.63,2.28,8.05,6.46,9.36,11.46l.23-.16.22-.16h.05c.57-.34,1.17-.65,1.78-.92l.14-.05c.1-.04.2-.08.3-.11C37.59,3.89,25.98-2.41,14.93.87,3.89,4.14-2.41,15.75.87,26.8c3.28,11.04,14.89,17.34,25.93,14.06,4.21-1.25,7.92-3.79,10.59-7.27.36-.47.69-.96,1-1.46.89-1.38,1.62-2.86,2.15-4.42-.27.15-.56.29-.86.43-.65.29-1.34.48-2.04.58Z"/>
        <path class="cls-1" d="M46.8,20.76c-.38.6-.75,1.21-1.11,1.82-.31.54-.59,1.09-.84,1.66.4-.53.77-1.08,1.1-1.66.36-.6.67-1.22.93-1.86.02-.05.04-.1.05-.16l-.13.2ZM46.05,20.47c.11-.35.21-.73.32-1.13.11-.42.17-.85.17-1.28,0-.42-.06-.83-.2-1.23-.25-.54-.69-.97-1.23-1.22-.57-.26-1.2-.37-1.83-.33-.6.03-1.19.15-1.75.36-.11,0-.21.08-.32.12-.65.29-1.28.62-1.88,1h0l-.51.37c-.96.7-1.82,1.51-2.57,2.43-.88,1.02-1.56,2.19-2,3.46-.07.26-.13.53-.18.82-.05.26-.07.53-.07.79,0,.7.23,1.38.64,1.95.39.47.91.82,1.49,1,.51.17,1.05.24,1.59.21h.26c.62-.07,1.23-.24,1.81-.49.56-.25,1.09-.54,1.59-.89h0c.51-.36.99-.76,1.44-1.19.44-.44.85-.9,1.23-1.38.41-.54.79-1.11,1.13-1.69.33-.54.62-1.1.87-1.68ZM44.49,17.72c-.21.79-.47,1.57-.76,2.34-.32.69-.67,1.36-1.07,2-.19.32-.4.63-.62.95s-.51.72-.79,1.08c-.5.64-1.07,1.23-1.69,1.76-.05,0-.1.03-.14.06-.02.01-.05.04-.06.06-.28.16-.59.33-.94.5-.08.04-.16.07-.24.09-.52.2-1.1,0-1.39-.47-.11-.19-.16-.4-.16-.62l.14-.87c.14-.67.37-1.32.67-1.94.35-.74.76-1.45,1.23-2.12.15-.22.31-.44.48-.66.35-.48.74-.93,1.14-1.37.48-.52,1-1,1.56-1.44.1-.1.21-.18.32-.26.26-.19.54-.35.82-.5.28-.16.61-.23.93-.19.23.04.41.19.49.41.08.23.13.48.13.73,0,.15,0,.31-.03.46h-.02Z"/>
        <path class="cls-1" d="M46.34,16.82c-.25-.54-.69-.97-1.23-1.22-.57-.26-1.2-.37-1.83-.33-.6.03-1.19.15-1.75.36-.11,0-.21.08-.32.12-.65.29-1.28.62-1.88,1h0l-.51.37c-.96.7-1.82,1.51-2.57,2.43-.88,1.02-1.56,2.19-2,3.46-.07.26-.13.53-.18.82-.05.26-.07.53-.07.79,0,.7.23,1.38.64,1.95.39.47.91.82,1.49,1,.51.17,1.05.24,1.59.21h.26c.62-.07,1.23-.24,1.81-.49.56-.25,1.09-.54,1.59-.89h0c.51-.36.99-.76,1.44-1.19.44-.43.85-.89,1.23-1.37.41-.54.79-1.11,1.13-1.69.33-.54.62-1.1.87-1.68.11-.35.21-.73.32-1.13.11-.42.17-.85.17-1.28,0-.42-.06-.84-.2-1.24ZM43.73,20.06c-.32.69-.68,1.35-1.07,2-.19.32-.4.63-.62.95s-.51.72-.79,1.08c-.85.89-1.8,1.69-2.83,2.38-.08.04-.16.07-.24.09-.52.2-1.1,0-1.39-.47-.11-.19-.16-.4-.16-.62l.14-.87c.14-.67.37-1.32.67-1.94.35-.74.76-1.45,1.23-2.12.15-.22.31-.44.48-.66.35-.48.74-.93,1.14-1.37.48-.52,1-1,1.56-1.44.1-.1.21-.18.32-.26.26-.19.54-.35.82-.5.28-.16.61-.23.93-.19.23.04.41.19.49.41.09.23.13.48.13.73-.17.96-.44,1.9-.81,2.8Z"/>
        <path class="cls-1" d="M64.48,15.46c-.02.15-.07.3-.14.43-.07.15-.16.29-.25.43l-.28.42c-.15.46-.28.93-.37,1.41-.1.5-.2,1-.29,1.43-.17.78-.35,1.55-.53,2.31-.19.74-.44,1.47-.75,2.17-.32.68-.72,1.31-1.21,1.88-.53.59-1.18,1.06-1.91,1.37-.32.15-.65.27-1,.35-.35.08-.72.13-1.08.13-.46,0-.91-.08-1.34-.25-.27-.12-.51-.32-.68-.56-.17-.21-.27-.48-.27-.75,0-.17.04-.34.11-.5.09-.18.21-.35.37-.48.16-.11.33-.21.51-.27.19-.1.41-.1.6,0,.11.07.18.19.17.32,0,.15-.02.29-.06.43-.01.08-.01.17,0,.25,0,.23.07.45.18.64.08.19.28.31.49.28.17,0,.33-.07.47-.17.17-.12.34-.25.49-.39.15-.14.29-.29.43-.45.13-.14.23-.26.31-.36.65-1.18,1.17-2.43,1.54-3.73.38-1.31.7-2.61,1-3.89-.31.35-.61.7-.89,1l-.93,1.15c-1,1.25-2.02,2.48-3.06,3.69-1.04,1.19-2.18,2.3-3.4,3.31-.14.11-.3.22-.45.32-.13.08-.28.14-.43.18-.31.58-.63,1.15-1,1.71-.47.79-.99,1.54-1.57,2.26-.57.72-1.25,1.35-2,1.87-.69.53-1.43.99-2.21,1.37-.79.37-1.62.61-2.48.72-.35.06-.76.1-1.24.14-.46.04-.93.02-1.39-.07-.45-.08-.87-.25-1.25-.5-.38-.23-.66-.58-.8-1-.06-.2-.07-.42-.05-.63.01-.16.04-.32.09-.48.11-.36.35-.67.68-.86.08-.05.17-.09.26-.12.25-.08.53-.08.78,0,.37.11.64.41.71.79.04.18.02.37-.07.54-.08.18-.16.35-.23.52-.07.15-.11.32-.1.49.04.2.17.37.35.45.17.13.37.22.58.26.23.03.45.03.68,0,.23-.02.46-.06.68-.12.23-.07.42-.14.59-.21.85-.43,1.65-.98,2.35-1.63.69-.67,1.31-1.4,1.86-2.19.57-.79,1.08-1.61,1.54-2.47.47-.86.9-1.7,1.31-2.53-.28.26-.58.52-.9.79-.32.26-.65.5-1,.71-.35.2-.72.36-1.11.47-.39.1-.81.1-1.2,0-.34-.06-.65-.25-.86-.52-.18-.26-.31-.55-.36-.86-.06-.33-.06-.67,0-1,.05-.34.13-.68.25-1l.12-.26c.25-.57.53-1.12.84-1.66.36-.61.73-1.22,1.11-1.82l.13-.2h0l1-1.6c.38-.6.73-1.22,1-1.85.05-.11.1-.23.15-.37s.09-.29.14-.43c.04-.15.1-.29.18-.42.07-.12.18-.22.31-.28.36,0,.73-.03,1.09-.08.36-.05.74-.05,1.1,0,.19,0,.3.12.32.26.04.15.04.31,0,.46-.05.17-.13.34-.22.5-.09.17-.17.31-.22.42-.42.9-.9,1.78-1.42,2.63l-1.56,2.52c-.06.09-.16.27-.31.54s-.3.57-.46.9-.31.68-.45,1c-.13.31-.24.62-.32.95-.06.21-.06.42,0,.63.06.13.21.16.45.07.93-.35,1.77-.9,2.46-1.62.71-.73,1.34-1.53,1.89-2.39.59-.9,1.12-1.84,1.59-2.8.48-1,1-1.87,1.5-2.71.09-.17.14-.36.16-.55v-.56c.07-.12.19-.2.33-.22l1.42-.11c.45-.04.91-.04,1.36,0,.03.21.03.42,0,.63-.03.23-.09.46-.18.68-.21.49-.47.95-.77,1.39-.31.45-.58.88-.82,1.31-.48.89-1,1.76-1.46,2.6s-1,1.68-1.55,2.52c-.23.35-.45.72-.67,1.09.49-.35.96-.72,1.41-1.12.66-.59,1.29-1.22,1.88-1.89.59-.67,1.17-1.35,1.72-2s1.09-1.37,1.59-2l.93-1.24c.31-.4.62-.78.93-1.15.14-.19.31-.36.51-.48.18-.11.37-.19.58-.23.21-.05.43-.07.65-.07h1.32Z"/>
      </g>
    </g>
  </g>
</svg>